<svg width="25" height="25" viewBox="0 0 25 25" fill="none" xmlns="http://www.w3.org/2000/svg">
<path d="M9.54167 11.3231C9.4375 11.3127 9.3125 11.3127 9.19792 11.3231C6.71875 11.2397 4.75 9.2085 4.75 6.7085C4.75 4.15641 6.8125 2.0835 9.375 2.0835C11.9271 2.0835 14 4.15641 14 6.7085C13.9896 9.2085 12.0208 11.2397 9.54167 11.3231Z" stroke="#292D32" stroke-width="1.5" stroke-linecap="round" stroke-linejoin="round"/>
<path d="M17.0939 4.1665C19.1147 4.1665 20.7397 5.80192 20.7397 7.81234C20.7397 9.78109 19.1772 11.3853 17.2293 11.4582C17.146 11.4478 17.0522 11.4478 16.9585 11.4582" stroke="#292D32" stroke-width="1.5" stroke-linecap="round" stroke-linejoin="round"/>
<path d="M4.3335 15.1665C1.81266 16.854 1.81266 19.604 4.3335 21.2811C7.19808 23.1978 11.896 23.1978 14.7606 21.2811C17.2814 19.5936 17.2814 16.8436 14.7606 15.1665C11.9064 13.2603 7.2085 13.2603 4.3335 15.1665Z" stroke="#292D32" stroke-width="1.5" stroke-linecap="round" stroke-linejoin="round"/>
<path d="M19.104 20.8335C19.854 20.6772 20.5623 20.3752 21.1457 19.9272C22.7707 18.7085 22.7707 16.6981 21.1457 15.4793C20.5728 15.0418 19.8748 14.7502 19.1353 14.5835" stroke="#292D32" stroke-width="1.5" stroke-linecap="round" stroke-linejoin="round"/>
</svg>
