<svg width="18" height="15" viewBox="0 0 18 15" fill="none" xmlns="http://www.w3.org/2000/svg">
<path d="M7.1665 9.67495C10.0601 9.67495 12.4058 8.11354 12.4058 6.18745C12.4058 4.26136 10.0601 2.69995 7.1665 2.69995C4.27294 2.69995 1.92725 4.26136 1.92725 6.18745C1.92725 8.11354 4.27294 9.67495 7.1665 9.67495Z" stroke="#292D32" stroke-width="1.5" stroke-linecap="round" stroke-linejoin="round"/>
<path d="M14.7719 1.125L11.0537 3.6" stroke="#292D32" stroke-width="1.5" stroke-linecap="round" stroke-linejoin="round"/>
<path d="M10.3774 1.125H14.7717V4.05" stroke="#292D32" stroke-width="1.5" stroke-linecap="round" stroke-linejoin="round"/>
<path d="M9.02569 11.4002C11.6392 11.4002 13.7579 9.98992 13.7579 8.25022C13.7579 6.51052 11.6392 5.10022 9.02569 5.10022C6.41215 5.10022 4.29346 6.51052 4.29346 8.25022C4.29346 9.98992 6.41215 11.4002 9.02569 11.4002Z" stroke="#292D32" stroke-width="1.5" stroke-linecap="round" stroke-linejoin="round"/>
<path d="M9.02563 11.4001V14.1001" stroke="#292D32" stroke-width="1.5" stroke-linecap="round" stroke-linejoin="round"/>
<path d="M11.0538 12.7502H6.99756" stroke="#292D32" stroke-width="1.5" stroke-linecap="round" stroke-linejoin="round"/>
</svg>
