<svg width="18" height="15" viewBox="0 0 18 15" fill="none" xmlns="http://www.w3.org/2000/svg">
<path d="M7.24704 13.75H11.4722C14.9933 13.75 16.4017 12.5 16.4017 9.375V5.625C16.4017 2.5 14.9933 1.25 11.4722 1.25H7.24704C3.72603 1.25 2.31763 2.5 2.31763 5.625V9.375C2.31763 12.5 3.72603 13.75 7.24704 13.75Z" stroke="#292D32" stroke-width="1.5" stroke-linecap="round" stroke-linejoin="round"/>
<path d="M11.8244 6.09375C12.4077 6.09375 12.8807 5.67402 12.8807 5.15625C12.8807 4.63848 12.4077 4.21875 11.8244 4.21875C11.241 4.21875 10.7681 4.63848 10.7681 5.15625C10.7681 5.67402 11.241 6.09375 11.8244 6.09375Z" stroke="#292D32" stroke-width="1.5" stroke-miterlimit="10" stroke-linecap="round" stroke-linejoin="round"/>
<path d="M6.89493 6.09375C7.4783 6.09375 7.95123 5.67402 7.95123 5.15625C7.95123 4.63848 7.4783 4.21875 6.89493 4.21875C6.31155 4.21875 5.83862 4.63848 5.83862 5.15625C5.83862 5.67402 6.31155 6.09375 6.89493 6.09375Z" stroke="#292D32" stroke-width="1.5" stroke-miterlimit="10" stroke-linecap="round" stroke-linejoin="round"/>
<path d="M6.82445 8.3125H11.8947C12.2468 8.3125 12.5285 8.5625 12.5285 8.875C12.5285 10.4312 11.113 11.6875 9.35958 11.6875C7.60612 11.6875 6.19067 10.4312 6.19067 8.875C6.19067 8.5625 6.47235 8.3125 6.82445 8.3125Z" stroke="#292D32" stroke-width="1.5" stroke-miterlimit="10" stroke-linecap="round" stroke-linejoin="round"/>
</svg>
